{"title":"Nenu Rowdy Ne 2016 DVDscr Telugu Movies xviD-TvMovize.mp4","uid":13929330,"size":874896066,"categoryP":"video","categoryS":"movies","magnet":"?xt=urn:btih:56cadc8928a3b7cb14d19bd03cb59530286a363a&amp;dn=Nenu+Rowdy+Ne+2016+DVDscr+Telugu+Movies+xviD-TvMovize.mp4&amp;tr=udp%3A%2F%2Ftracker.leechers-paradise.org%3A6969&amp;tr=udp%3A%2F%2Fzer0day.ch%3A1337&amp;tr=udp%3A%2F%2Fopen.demonii.com%3A1337&amp;tr=udp%3A%2F%2Ftracker.coppersurfer.tk%3A6969&amp;tr=udp%3A%2F%2Fexodus.desync.com%3A6969","seeders":0,"leechers":1,"uploader":"TvMovize","files":1,"time":1458407139,"description":"Nenu Rowdy Ne 2016 DVDscr Telugu Movies xviD-TvMovize.mp4\r\n\r\n++ ScreenShots ++\r\n \nhttp://www.image2be.com/movie/NenuRowdyNe/1.html  \nhttp://www.image2be.com/movie/NenuRowdyNe/2.html  \nhttp://www.image2be.com/movie/NenuRowdyNe/3.html  \nhttp://www.image2be.com/movie/NenuRowdyNe/4.html  \nhttp://www.image2be.com/movie/NenuRowdyNe/5.html \r\n\r\n++ Info ++\r\n\r\nFormat : MPEG-4 \r\nFormat profile : Base Media \r\nCodec ID : isom (isom/iso2/avc1/mp41) \r\nFile size : 834 MiB \r\nDuration : 2h 17mn \r\nOverall bit rate : 846 Kbps \r\nWriting application : Lavf57.20.100 \r\n\r\nVideo \r\nID : 1 \r\nFormat : AVC \r\nFormat/Info : Advanced Video Codec \r\nFormat profile :    \r\nFormat settings, CABAC : Yes \r\nFormat settings, ReFrames : 4 frames \r\nCodec ID : avc1 \r\nCodec ID/Info : Advanced Video Coding \r\nDuration : 2h 17mn \r\nBit rate : 710 Kbps \r\nWidth : 672 pixels \r\nHeight : 288 pixels \r\nDisplay aspect ratio : 2.35:1 \r\nFrame rate mode : Variable \r\nFrame rate : 24.000 fps \r\nMinimum frame rate : 23.634 fps \r\nMaximum frame rate : 24.390 fps \r\nColor space : YUV \r\nChroma subsampling : 4:2:0 \r\nBit depth : 8 bits \r\nScan type : Progressive \r\nBits/(Pixel*Frame) : 0.153 \r\nStream size : 701 MiB (84%) \r\nWriting library : x264 core 142 r2479 dd79a61 \r\nEncoding settings : cabac=1 / ref=1 / deblock=1:0:0 / analyse=0x1:0x111 / me=hex / subme=2 / psy=1 / psy_rd=1.00:0.00 / mixed_ref=0 / me_range=16 / chroma_me=1 / trellis=0 / 8x8dct=0 / cqm=0 / deadzone=21,11 / fast_pskip=1 / chroma_qp_offset=0 / threads=6 / lookahead_threads=2 / sliced_threads=0 / nr=0 / decimate=1 / interlaced=0 / bluray_compat=0 / constrained_intra=0 / bframes=3 / b_pyramid=2 / b_adapt=1 / b_bias=0 / direct=1 / weightb=1 / open_gop=0 / weightp=1 / keyint=240 / keyint_min=24 / scenecut=40 / intra_refresh=0 / rc_lookahead=10 / rc=crf / mbtree=1 / crf=20.0 / qcomp=0.60 / qpmin=0 / qpmax=69 / qpstep=4 / vbv_maxrate=20000 / vbv_bufsize=25000 / crf_max=0.0 / nal_hrd=none / filler=0 / ip_ratio=1.40 / aq=1:1.00 \r\nColor range : Limited \r\nColor primaries : BT.709 \r\nTransfer characteristics : BT.709 \r\nMatrix coefficients : BT.709 \r\n\r\nAudio \r\nID : 2 \r\nFormat : AAC \r\nFormat/Info : Advanced Audio Codec \r\nFormat profile : LC \r\nCodec ID : 40 \r\nDuration : 2h 17mn \r\nBit rate mode : Constant \r\nBit rate : 128 Kbps \r\nChannel(s) : 2 channels \r\nChannel positions : Front: L R \r\nSampling rate : 44.1 KHz \r\nFrame rate : 43.066 fps (1024 spf) \r\nCompression mode : Lossy \r\nStream size : 127 MiB (15%) \r\nTitle : Stereo \r\nDefault : Yes \r\nAlternate group : 1","torrent":{"xt":"urn:btih:56cadc8928a3b7cb14d19bd03cb59530286a363a","amp;dn":"Nenu+Rowdy+Ne+2016+DVDscr+Telugu+Movies+xviD-TvMovize.mp4","amp;tr":["udp%3A%2F%2Ftracker.leechers-paradise.org%3A6969","udp%3A%2F%2Fzer0day.ch%3A1337","udp%3A%2F%2Fopen.demonii.com%3A1337","udp%3A%2F%2Ftracker.coppersurfer.tk%3A6969","udp%3A%2F%2Fexodus.desync.com%3A6969"],"infoHash":"56cadc8928a3b7cb14d19bd03cb59530286a363a","infoHashBuffer":{"type":"Buffer","data":[86,202,220,137,40,163,183,203,20,209,155,208,60,181,149,48,40,106,54,58]},"announce":[],"urlList":[]}}